<svg width="100" height="97" viewBox="0 0 100 97" fill="none" xmlns="http://www.w3.org/2000/svg">
<path d="M50 0C21.875 0 0 21.875 0 50C0 82.8125 29.6875 96.875 34.375 96.875C37.5 96.875 37.5 95.3125 37.5 93.75V85.9375C26.5625 89.0625 21.875 82.8125 20.3125 78.125C20.3125 78.125 20.3125 76.5625 17.1875 73.4375C15.625 71.875 9.375 68.75 15.625 68.75C20.3125 68.75 23.4375 75 23.4375 75C28.125 81.25 34.375 79.6875 37.5 78.125C37.5 75 40.625 71.875 40.625 71.875C28.125 70.3125 18.75 65.625 18.75 48.4375C18.75 42.1875 20.3125 37.5 23.4375 34.375C23.4375 34.375 20.3125 28.125 23.4375 20.3125C23.4375 20.3125 31.25 20.3125 37.5 26.5625C42.1875 23.4375 57.8125 23.4375 62.5 26.5625C68.75 20.3125 76.5625 20.3125 76.5625 20.3125C79.6875 31.25 76.5625 34.375 76.5625 34.375C79.6875 37.5 81.25 42.1875 81.25 48.4375C81.25 65.625 70.3125 70.3125 59.375 71.875C60.9375 73.4375 62.5 76.5625 62.5 81.25V93.75C62.5 95.3125 62.5 96.875 65.625 96.875C70.3125 96.875 100 82.8125 100 50C100 21.875 78.125 0 50 0Z" fill="black"/>
</svg>
